<svg id="Layer_1" data-name="Layer 1" xmlns="http://www.w3.org/2000/svg" viewBox="0 0 2046.04 2546.53"><defs><style>.cls-1{fill:#f7931e;stroke:#fbb03b;stroke-width:20px;}.cls-1,.cls-2,.cls-3,.cls-4,.cls-6{stroke-miterlimit:10;}.cls-2{fill:#e12424;}.cls-2,.cls-3,.cls-4,.cls-6{stroke:#000;stroke-width:2px;}.cls-3{fill:#ffd52f;}.cls-4{fill:none;}.cls-5{font-size:58.07px;}.cls-5,.cls-7{font-family:MyriadPro-Regular, Myriad Pro;}.cls-6{fill:#666;}.cls-7{font-size:36px;}</style></defs><path class="cls-1" d="M2351.71,1403.63V2221.9c0,337.24-273.4,610.64-610.65,610.64s-610.65-273.4-610.65-610.64h-1.22V1403.63Z" transform="translate(-754.48 -296.02)"/><polygon class="cls-2" points="936.99 1 1034.63 1 1098.07 1094.97 870.78 1094.97 936.99 1"/><path class="cls-3" d="M2798.77,1234v110.75H1484.08V1234h511.68c2.55,6.11,11.44,24.66,27.24,29.65,16.36,5.17,33-22,37.28-29.65h132.48c2.55,6.11,11.44,24.66,27.24,29.65,16.36,5.17,33-22,37.28-29.65Z" transform="translate(-754.48 -296.02)"/><line class="cls-4" x1="2045.04" y1="1048.7" x2="2045.04" y2="972.41"/><line class="cls-4" x1="2000.34" y1="1048.7" x2="2000.34" y2="992.1"/><line class="cls-4" x1="1962.02" y1="1048.7" x2="1962.02" y2="972.41"/><line class="cls-4" x1="1920.52" y1="1048.7" x2="1920.52" y2="992.1"/><line class="cls-4" x1="1882.2" y1="1048.7" x2="1882.2" y2="972.41"/><line class="cls-4" x1="1837.5" y1="1048.7" x2="1837.5" y2="992.1"/><line class="cls-4" x1="1799.19" y1="1048.7" x2="1799.19" y2="972.41"/><line class="cls-4" x1="1757.68" y1="1048.7" x2="1757.68" y2="992.1"/><line class="cls-4" x1="1719.37" y1="1048.7" x2="1719.37" y2="972.41"/><line class="cls-4" x1="1674.67" y1="1048.7" x2="1674.67" y2="992.1"/><line class="cls-4" x1="1636.36" y1="1048.7" x2="1636.36" y2="972.41"/><line class="cls-4" x1="1594.85" y1="1048.7" x2="1594.85" y2="992.1"/><line class="cls-4" x1="1556.54" y1="1048.7" x2="1556.54" y2="972.41"/><line class="cls-4" x1="1508.65" y1="1048.7" x2="1508.65" y2="992.1"/><line class="cls-4" x1="1470.33" y1="1048.7" x2="1470.33" y2="972.41"/><line class="cls-4" x1="1428.83" y1="1048.7" x2="1428.83" y2="992.1"/><line class="cls-4" x1="1390.51" y1="1048.7" x2="1390.51" y2="972.41"/><line class="cls-4" x1="1345.81" y1="1048.7" x2="1345.81" y2="992.1"/><line class="cls-4" x1="1307.5" y1="1048.7" x2="1307.5" y2="972.41"/><line class="cls-4" x1="1265.99" y1="1048.7" x2="1265.99" y2="992.1"/><line class="cls-4" x1="1227.68" y1="1048.7" x2="1227.68" y2="972.41"/><line class="cls-4" x1="1186.17" y1="1048.7" x2="1186.17" y2="992.1"/><line class="cls-4" x1="1147.86" y1="1048.7" x2="1147.86" y2="972.41"/><line class="cls-4" x1="1106.36" y1="1048.7" x2="1106.36" y2="992.1"/><line class="cls-4" x1="1068.04" y1="1048.7" x2="1068.04" y2="972.41"/><line class="cls-4" x1="1023.34" y1="1048.7" x2="1023.34" y2="992.1"/><line class="cls-4" x1="985.03" y1="1048.7" x2="985.03" y2="984.38"/><line class="cls-4" x1="943.52" y1="1048.7" x2="943.52" y2="992.1"/><line class="cls-4" x1="905.21" y1="1048.7" x2="905.21" y2="972.41"/><line class="cls-4" x1="857.32" y1="1048.7" x2="857.32" y2="992.1"/><line class="cls-4" x1="819" y1="1048.7" x2="819" y2="972.41"/><line class="cls-4" x1="777.5" y1="1048.7" x2="777.5" y2="992.1"/><path class="cls-3" d="M1649.5,1234H1437.28c-4.3,7.65-20.92,34.82-37.28,29.65-15.8-5-24.69-23.54-27.24-29.65h-96.48c-4.3,7.65-20.92,34.82-37.28,29.65-15.8-5-24.69-23.54-27.24-29.65H755.48v110.75h894" transform="translate(-754.48 -296.02)"/><line class="cls-4" x1="856.72" y1="1048.7" x2="856.72" y2="992.1"/><line class="cls-4" x1="818.41" y1="1048.7" x2="818.41" y2="972.41"/><line class="cls-4" x1="776.9" y1="1048.7" x2="776.9" y2="992.1"/><line class="cls-4" x1="738.59" y1="1048.7" x2="738.59" y2="972.41"/><line class="cls-4" x1="693.89" y1="1048.7" x2="693.89" y2="992.1"/><line class="cls-4" x1="655.58" y1="1048.7" x2="655.58" y2="972.41"/><line class="cls-4" x1="614.07" y1="1048.7" x2="614.07" y2="992.1"/><line class="cls-4" x1="575.76" y1="1048.7" x2="575.76" y2="972.41"/><line class="cls-4" x1="527.86" y1="1048.7" x2="527.86" y2="992.1"/><line class="cls-4" x1="489.55" y1="1048.7" x2="489.55" y2="972.41"/><line class="cls-4" x1="448.04" y1="1048.7" x2="448.04" y2="992.1"/><line class="cls-4" x1="409.73" y1="1048.7" x2="409.73" y2="972.41"/><line class="cls-4" x1="365.03" y1="1048.7" x2="365.03" y2="992.1"/><line class="cls-4" x1="326.72" y1="1048.7" x2="326.72" y2="972.41"/><line class="cls-4" x1="285.21" y1="1048.7" x2="285.21" y2="992.1"/><line class="cls-4" x1="246.9" y1="1048.7" x2="246.9" y2="972.41"/><line class="cls-4" x1="202.2" y1="1048.7" x2="202.2" y2="992.1"/><line class="cls-4" x1="163.89" y1="1048.7" x2="163.89" y2="972.41"/><line class="cls-4" x1="122.38" y1="1048.7" x2="122.38" y2="992.1"/><line class="cls-4" x1="84.07" y1="1048.7" x2="84.07" y2="972.41"/><line class="cls-4" x1="39.37" y1="1048.7" x2="39.37" y2="992.1"/><line class="cls-4" x1="1.05" y1="1048.7" x2="1.05" y2="972.41"/><text class="cls-5" transform="translate(971.74 981.11)">0</text><path class="cls-3" d="M2088.16,838.47c-57.87,89.12-148.94,154.68-255.7,179.1A415.36,415.36,0,0,1,1390.3,837.74L1225,938.69a612.12,612.12,0,0,0,123.25,140.71h0q20.46,17.16,42.37,32.5,22.08,15.46,45.53,29h0q23.85,13.68,49,25.27h0a603.52,603.52,0,0,0,149.25,46.44,612.24,612.24,0,0,0,104.7,9h.34a613,613,0,0,0,104.32-8.9A604.1,604.1,0,0,0,1994,1166.08h0q25.13-11.55,49-25.31,23.43-13.5,45.51-29t42.37-32.5a612.3,612.3,0,0,0,122.64-139.87Z" transform="translate(-754.48 -296.02)"/><line class="cls-4" x1="984.64" y1="824.36" x2="984.64" y2="926.37"/><line class="cls-4" x1="592.74" y1="642.63" x2="518.26" y2="707.17"/><line class="cls-4" x1="614.07" y1="691.68" x2="555.5" y2="742.39"/><line class="cls-4" x1="655.58" y1="707.17" x2="592.74" y2="784.64"/><line class="cls-4" x1="680.46" y1="753.52" x2="635.77" y2="816.41"/><line class="cls-4" x1="729.6" y1="753.52" x2="680.46" y2="847.18"/><line class="cls-4" x1="762.26" y1="800.35" x2="729.6" y2="872.54"/><line class="cls-4" x1="845.96" y1="827.99" x2="826.1" y2="902.47"/><line class="cls-4" x1="895.02" y1="816.41" x2="880.71" y2="912.4"/><line class="cls-4" x1="938.89" y1="847.18" x2="933.67" y2="922.33"/><line class="cls-4" x1="811.2" y1="793.24" x2="777.5" y2="884.76"/><line class="cls-4" x1="1377.47" y1="642.63" x2="1451.94" y2="707.17"/><line class="cls-4" x1="1356.14" y1="691.68" x2="1414.71" y2="742.39"/><line class="cls-4" x1="1314.63" y1="707.17" x2="1377.47" y2="784.64"/><line class="cls-4" x1="1289.75" y1="753.52" x2="1334.44" y2="816.41"/><line class="cls-4" x1="1240.6" y1="753.52" x2="1289.75" y2="847.18"/><line class="cls-4" x1="1207.95" y1="800.35" x2="1240.6" y2="872.54"/><line class="cls-4" x1="1124.25" y1="827.99" x2="1144.11" y2="902.47"/><line class="cls-4" x1="1075.18" y1="816.41" x2="1089.49" y2="912.4"/><line class="cls-4" x1="1031.32" y1="847.18" x2="1036.53" y2="922.33"/><line class="cls-4" x1="1159" y1="793.24" x2="1192.71" y2="884.76"/><line class="cls-4" x1="635.82" y1="541.72" x2="470.5" y2="642.68"/><line class="cls-4" x1="1499" y1="643.41" x2="1333.68" y2="542.45"/><polygon class="cls-6" points="1003.13 30.79 966.83 30.79 948.67 62.24 966.83 93.68 1003.13 93.68 1021.29 62.24 1003.13 30.79"/><text class="cls-7" transform="translate(877.38 810.44) rotate(12.24)">10</text><text class="cls-7" transform="translate(1058.04 821.4) rotate(-9.04)">10</text><text class="cls-7" transform="translate(797.12 784.62) rotate(20.37)">20</text><text class="cls-7" transform="translate(1138.42 797.34) rotate(-19.87)">20</text><text class="cls-7" transform="translate(716.24 742.7) rotate(25.22)">30</text><text class="cls-7" transform="matrix(0.9, -0.43, 0.43, 0.9, 1224.38, 762.51)">30</text><text class="cls-7" transform="matrix(0.83, 0.56, -0.56, 0.83, 643.03, 694.6)">40</text><text class="cls-7" transform="translate(583.09 629.37) rotate(51.06)">50</text><text class="cls-7" transform="translate(1300.49 720.14) rotate(-38.94)">40</text><text class="cls-7" transform="translate(1364.87 656.77) rotate(-46.58)">50</text></svg>