<svg id="Layer_1" data-name="Layer 1" xmlns="http://www.w3.org/2000/svg" viewBox="0 0 3736 2969.96"><defs><style>.cls-1,.cls-10{fill:#5ca7ff;}.cls-1,.cls-10,.cls-11,.cls-3,.cls-4,.cls-5,.cls-7,.cls-8{stroke:#000;}.cls-1,.cls-10,.cls-11,.cls-2,.cls-3,.cls-4,.cls-5,.cls-7,.cls-8{stroke-miterlimit:10;}.cls-1,.cls-2{stroke-width:20px;}.cls-2{fill:#f7931e;stroke:#fbb03b;}.cls-11,.cls-3{fill:none;}.cls-10,.cls-3,.cls-4,.cls-5,.cls-7,.cls-8{stroke-width:2px;}.cls-4{fill:#e12424;}.cls-5{fill:#ffd52f;}.cls-6{font-size:58.07px;}.cls-6,.cls-9{font-family:MyriadPro-Regular, Myriad Pro;}.cls-7{fill:#333;}.cls-8{fill:#666;}.cls-9{font-size:36px;}.cls-11{stroke-width:4px;}</style></defs><rect class="cls-1" x="10" y="1309.01" width="3716" height="1650.96"/><path class="cls-2" d="M2351.71,1403.63V2221.9c0,337.24-273.4,610.64-610.65,610.64s-610.65-273.4-610.65-610.64h-1.22V1403.63Z" transform="translate(136 -296.02)"/><path class="cls-3" d="M1720,1397.45" transform="translate(136 -296.02)"/><polygon class="cls-4" points="1827.46 1 1925.11 1 1988.55 1094.97 1761.26 1094.97 1827.46 1"/><path class="cls-5" d="M2798.77,1234v110.75H1484.08V1234h511.68c2.55,6.11,11.44,24.66,27.24,29.65,16.36,5.17,33-22,37.28-29.65h132.48c2.55,6.11,11.44,24.66,27.24,29.65,16.36,5.17,33-22,37.28-29.65Z" transform="translate(136 -296.02)"/><line class="cls-3" x1="2935.52" y1="1048.7" x2="2935.52" y2="972.41"/><line class="cls-3" x1="2890.82" y1="1048.7" x2="2890.82" y2="992.1"/><line class="cls-3" x1="2852.5" y1="1048.7" x2="2852.5" y2="972.41"/><line class="cls-3" x1="2811" y1="1048.7" x2="2811" y2="992.1"/><line class="cls-3" x1="2772.68" y1="1048.7" x2="2772.68" y2="972.41"/><line class="cls-3" x1="2727.98" y1="1048.7" x2="2727.98" y2="992.1"/><line class="cls-3" x1="2689.67" y1="1048.7" x2="2689.67" y2="972.41"/><line class="cls-3" x1="2648.16" y1="1048.7" x2="2648.16" y2="992.1"/><line class="cls-3" x1="2609.85" y1="1048.7" x2="2609.85" y2="972.41"/><line class="cls-3" x1="2565.15" y1="1048.7" x2="2565.15" y2="992.1"/><line class="cls-3" x1="2526.84" y1="1048.7" x2="2526.84" y2="972.41"/><line class="cls-3" x1="2485.33" y1="1048.7" x2="2485.33" y2="992.1"/><line class="cls-3" x1="2447.02" y1="1048.7" x2="2447.02" y2="972.41"/><line class="cls-3" x1="2399.13" y1="1048.7" x2="2399.13" y2="992.1"/><line class="cls-3" x1="2360.81" y1="1048.7" x2="2360.81" y2="972.41"/><line class="cls-3" x1="2319.31" y1="1048.7" x2="2319.31" y2="992.1"/><line class="cls-3" x1="2280.99" y1="1048.7" x2="2280.99" y2="972.41"/><line class="cls-3" x1="2236.29" y1="1048.7" x2="2236.29" y2="992.1"/><line class="cls-3" x1="2197.98" y1="1048.7" x2="2197.98" y2="972.41"/><line class="cls-3" x1="2156.47" y1="1048.7" x2="2156.47" y2="992.1"/><line class="cls-3" x1="2118.16" y1="1048.7" x2="2118.16" y2="972.41"/><line class="cls-3" x1="2076.65" y1="1048.7" x2="2076.65" y2="992.1"/><line class="cls-3" x1="2038.34" y1="1048.7" x2="2038.34" y2="972.41"/><line class="cls-3" x1="1996.84" y1="1048.7" x2="1996.84" y2="992.1"/><line class="cls-3" x1="1958.52" y1="1048.7" x2="1958.52" y2="972.41"/><line class="cls-3" x1="1913.82" y1="1048.7" x2="1913.82" y2="992.1"/><line class="cls-3" x1="1875.51" y1="1048.7" x2="1875.51" y2="984.38"/><line class="cls-3" x1="1834" y1="1048.7" x2="1834" y2="992.1"/><line class="cls-3" x1="1795.69" y1="1048.7" x2="1795.69" y2="972.41"/><line class="cls-3" x1="1747.8" y1="1048.7" x2="1747.8" y2="992.1"/><line class="cls-3" x1="1709.48" y1="1048.7" x2="1709.48" y2="972.41"/><line class="cls-3" x1="1667.98" y1="1048.7" x2="1667.98" y2="992.1"/><path class="cls-5" d="M1649.5,1234H1437.28c-4.3,7.65-20.92,34.82-37.28,29.65-15.8-5-24.69-23.54-27.24-29.65h-96.48c-4.3,7.65-20.92,34.82-37.28,29.65-15.8-5-24.69-23.54-27.24-29.65H755.48v110.75h894" transform="translate(136 -296.02)"/><line class="cls-3" x1="1747.2" y1="1048.7" x2="1747.2" y2="992.1"/><line class="cls-3" x1="1708.89" y1="1048.7" x2="1708.89" y2="972.41"/><line class="cls-3" x1="1667.38" y1="1048.7" x2="1667.38" y2="992.1"/><line class="cls-3" x1="1629.07" y1="1048.7" x2="1629.07" y2="972.41"/><line class="cls-3" x1="1584.37" y1="1048.7" x2="1584.37" y2="992.1"/><line class="cls-3" x1="1546.06" y1="1048.7" x2="1546.06" y2="972.41"/><line class="cls-3" x1="1504.55" y1="1048.7" x2="1504.55" y2="992.1"/><line class="cls-3" x1="1466.24" y1="1048.7" x2="1466.24" y2="972.41"/><line class="cls-3" x1="1418.34" y1="1048.7" x2="1418.34" y2="992.1"/><line class="cls-3" x1="1380.03" y1="1048.7" x2="1380.03" y2="972.41"/><line class="cls-3" x1="1338.52" y1="1048.7" x2="1338.52" y2="992.1"/><line class="cls-3" x1="1300.21" y1="1048.7" x2="1300.21" y2="972.41"/><line class="cls-3" x1="1255.51" y1="1048.7" x2="1255.51" y2="992.1"/><line class="cls-3" x1="1217.2" y1="1048.7" x2="1217.2" y2="972.41"/><line class="cls-3" x1="1175.69" y1="1048.7" x2="1175.69" y2="992.1"/><line class="cls-3" x1="1137.38" y1="1048.7" x2="1137.38" y2="972.41"/><line class="cls-3" x1="1092.68" y1="1048.7" x2="1092.68" y2="992.1"/><line class="cls-3" x1="1054.37" y1="1048.7" x2="1054.37" y2="972.41"/><line class="cls-3" x1="1012.86" y1="1048.7" x2="1012.86" y2="992.1"/><line class="cls-3" x1="974.55" y1="1048.7" x2="974.55" y2="972.41"/><line class="cls-3" x1="929.85" y1="1048.7" x2="929.85" y2="992.1"/><line class="cls-3" x1="891.53" y1="1048.7" x2="891.53" y2="972.41"/><text class="cls-6" transform="translate(1862.22 981.11)">0</text><path class="cls-5" d="M2088.16,838.47c-57.87,89.12-148.94,154.68-255.7,179.1A415.36,415.36,0,0,1,1390.3,837.74L1225,938.69a612.12,612.12,0,0,0,123.25,140.71h0q20.46,17.16,42.37,32.5,22.08,15.46,45.53,29h0q23.85,13.68,49,25.27h0a603.52,603.52,0,0,0,149.25,46.44,612.24,612.24,0,0,0,104.7,9h.34a613,613,0,0,0,104.32-8.9A604.1,604.1,0,0,0,1994,1166.08h0q25.13-11.55,49-25.31,23.43-13.5,45.51-29t42.37-32.5a612.3,612.3,0,0,0,122.64-139.87Z" transform="translate(136 -296.02)"/><line class="cls-3" x1="1875.12" y1="824.36" x2="1875.12" y2="926.37"/><line class="cls-3" x1="1483.22" y1="642.63" x2="1408.74" y2="707.17"/><line class="cls-3" x1="1504.55" y1="691.68" x2="1445.98" y2="742.39"/><line class="cls-3" x1="1546.06" y1="707.17" x2="1483.22" y2="784.64"/><line class="cls-3" x1="1570.94" y1="753.52" x2="1526.25" y2="816.41"/><line class="cls-3" x1="1620.08" y1="753.52" x2="1570.94" y2="847.18"/><line class="cls-3" x1="1652.74" y1="800.35" x2="1620.08" y2="872.54"/><line class="cls-3" x1="1736.44" y1="827.99" x2="1716.58" y2="902.47"/><line class="cls-3" x1="1785.5" y1="816.41" x2="1771.19" y2="912.4"/><line class="cls-3" x1="1829.37" y1="847.18" x2="1824.15" y2="922.33"/><line class="cls-3" x1="1701.68" y1="793.24" x2="1667.98" y2="884.76"/><line class="cls-3" x1="2267.95" y1="642.63" x2="2342.42" y2="707.17"/><line class="cls-3" x1="2246.62" y1="691.68" x2="2305.19" y2="742.39"/><line class="cls-3" x1="2205.11" y1="707.17" x2="2267.95" y2="784.64"/><line class="cls-3" x1="2180.23" y1="753.52" x2="2224.92" y2="816.41"/><line class="cls-3" x1="2131.08" y1="753.52" x2="2180.23" y2="847.18"/><line class="cls-3" x1="2098.43" y1="800.35" x2="2131.08" y2="872.54"/><line class="cls-3" x1="2014.73" y1="827.99" x2="2034.59" y2="902.47"/><line class="cls-3" x1="1965.66" y1="816.41" x2="1979.97" y2="912.4"/><line class="cls-3" x1="1921.8" y1="847.18" x2="1927.01" y2="922.33"/><line class="cls-3" x1="2049.48" y1="793.24" x2="2083.19" y2="884.76"/><line class="cls-3" x1="1526.3" y1="541.72" x2="1360.98" y2="642.68"/><line class="cls-3" x1="2389.48" y1="643.41" x2="2224.16" y2="542.45"/><polygon class="cls-7" points="1918.3 824.01 1875 901.99 1831.7 824.01 1860 824.01 1860 61.98 1893 61.98 1893 824.01 1918.3 824.01"/><polygon class="cls-8" points="1893.62 30.79 1857.31 30.79 1839.15 62.24 1857.31 93.68 1893.62 93.68 1911.77 62.24 1893.62 30.79"/><text class="cls-9" transform="translate(1767.83 810.47) rotate(12.24)">10</text><text class="cls-9" transform="matrix(0.99, -0.16, 0.16, 0.99, 1948.53, 821.4)">10</text><text class="cls-9" transform="translate(1687.63 784.62) rotate(20.37)">20</text><text class="cls-9" transform="translate(2028.84 797.36) rotate(-19.87)">20</text><text class="cls-9" transform="matrix(0.9, 0.43, -0.43, 0.9, 1606.75, 742.73)">30</text><text class="cls-9" transform="translate(2114.87 762.55) rotate(-25.61)">30</text><text class="cls-9" transform="matrix(0.83, 0.56, -0.56, 0.83, 1533.51, 694.65)">40</text><text class="cls-9" transform="translate(1473.54 629.4) rotate(51.06)">50</text><text class="cls-9" transform="matrix(0.78, -0.63, 0.63, 0.78, 2191, 720.18)">40</text><text class="cls-9" transform="translate(2255.34 656.8) rotate(-46.58)">50</text><rect class="cls-10" x="3241.5" y="376.79" width="174.95" height="227.54"/><ellipse class="cls-10" cx="3329.53" cy="377.89" rx="87.47" ry="24.36"/><ellipse class="cls-10" cx="3329.53" cy="604.88" rx="87.47" ry="24.36"/><path class="cls-11" d="M3193.53,673.91l-.56-85.6s37.1-3,37.1-45.06c0-49.23-39.86-46.5-39.86-46.5s-42.08,0-42.08,38.75" transform="translate(136 -296.02)"/><rect class="cls-10" x="2764.5" y="250.79" width="174.95" height="227.54"/><ellipse class="cls-10" cx="2852.53" cy="251.89" rx="87.47" ry="24.36"/><ellipse class="cls-10" cx="2852.53" cy="478.88" rx="87.47" ry="24.36"/><path class="cls-11" d="M2716.53,547.91l-.56-85.6s37.1-3,37.1-45.06c0-49.23-39.86-46.5-39.86-46.5s-42.08,0-42.08,38.75" transform="translate(136 -296.02)"/></svg>