<?xml version="1.0" encoding="UTF-8" standalone="no"?>
<svg
   xmlns:dc="http://purl.org/dc/elements/1.1/"
   xmlns:cc="http://creativecommons.org/ns#"
   xmlns:rdf="http://www.w3.org/1999/02/22-rdf-syntax-ns#"
   xmlns:svg="http://www.w3.org/2000/svg"
   xmlns="http://www.w3.org/2000/svg"
   xmlns:sodipodi="http://sodipodi.sourceforge.net/DTD/sodipodi-0.dtd"
   xmlns:inkscape="http://www.inkscape.org/namespaces/inkscape"
   inkscape:version="1.0 (4035a4fb49, 2020-05-01)"
   sodipodi:docname="watch.svg"
   id="svg32"
   version="1.1"
   width="100"
   viewBox="0 0 25 25"
   height="100">
  <metadata
     id="metadata38">
    <rdf:RDF>
      <cc:Work
         rdf:about="">
        <dc:format>image/svg+xml</dc:format>
        <dc:type
           rdf:resource="http://purl.org/dc/dcmitype/StillImage" />
        <dc:title />
      </cc:Work>
    </rdf:RDF>
  </metadata>
  <defs
     id="defs36">
    <clipPath
       id="clipPath981"
       clipPathUnits="userSpaceOnUse">
      <rect
         y="3.0929368"
         x="-16.178438"
         height="36.401485"
         width="17.368031"
         id="rect983"
         style="opacity:0;fill:#ffff00;fill-opacity:0.630522;fill-rule:nonzero;stroke:#000000;stroke-width:1;stroke-linecap:round;stroke-linejoin:round;stroke-miterlimit:4;stroke-dasharray:none;stroke-opacity:0.831325;paint-order:stroke fill markers" />
    </clipPath>
    <clipPath
       clipPathUnits="userSpaceOnUse"
       id="clipPath981-6">
      <rect
         style="opacity:0;fill:#ffff00;fill-opacity:0.630522;fill-rule:nonzero;stroke:#000000;stroke-width:1;stroke-linecap:round;stroke-linejoin:round;stroke-miterlimit:4;stroke-dasharray:none;stroke-opacity:0.831325;paint-order:stroke fill markers"
         id="rect983-4"
         width="17.368031"
         height="36.401485"
         x="-16.178438"
         y="3.0929368" />
    </clipPath>
  </defs>
  <sodipodi:namedview
     inkscape:current-layer="svg32"
     inkscape:window-maximized="1"
     inkscape:window-y="-8"
     inkscape:window-x="-8"
     inkscape:cy="61.609174"
     inkscape:cx="76.107085"
     inkscape:zoom="2.5722563"
     showgrid="false"
     id="namedview34"
     inkscape:window-height="706"
     inkscape:window-width="1366"
     inkscape:pageshadow="2"
     inkscape:pageopacity="0"
     guidetolerance="10"
     gridtolerance="10"
     objecttolerance="10"
     borderopacity="1"
     bordercolor="#666666"
     pagecolor="#ffffff"
     inkscape:document-rotation="0" />
  <ellipse
     style="stroke-width:0.192514"
     ry="9.3356457"
     rx="9.656992"
     cx="13.410488"
     cy="14.062398"
     fill="#3ea2e5"
     id="circle2" />
  <ellipse
     style="stroke-width:0.192514"
     ry="7.1761117"
     rx="7.4231234"
     cx="13.410488"
     cy="14.062398"
     fill="#dfeef4"
     id="circle4" />
  <path
     id="path8"
     d="M 11.565281,1.5572009 H 15.2555 v 1.5613987 h -3.690219 z"
     style="fill:#f45858;stroke-width:0.192514" />
  <path
     id="path10"
     d="m 18.886197,6.3737061 0.01958,0.010411 1.142095,-1.9219836 -1.400353,-0.7777654 -1.141507,1.9206585 0.01723,0.00965 a 9.6311467,9.3106607 0 0 1 1.362955,0.7590264 z"
     style="fill:#f45858;stroke-width:0.192514" />
  <path
     id="path12"
     d="M 7.9349753,6.3735168 A 9.6358459,9.3152035 0 0 1 9.2987138,5.6146797 l 0.01723,-0.00965 -1.1415069,-1.9206585 -1.400353,0.7777654 1.1420944,1.9219836 z"
     style="fill:#f45858;stroke-width:0.192514" />
  <path
     id="path14"
     d="m 12.603014,3.1185996 v 1.6403299 h 0.03799 c 0.254539,-0.018928 0.510252,-0.032178 0.769489,-0.032178 0.259238,0 0.515343,0.012871 0.76949,0.032178 h 0.03798 V 3.1185996 Z"
     style="fill:#f45858;stroke-width:0.192514" />
  <path
     style="stroke-width:0.192514"
     id="path18"
     d="M 4.3369767,16.105901 A 9.3161064,9.0061037 0 0 1 21.075032,8.9443638 0.34266117,0.33125878 0 0 0 21.638541,8.5673113 10.010409,9.6773026 0 0 0 19.353373,6.2940178 l 0.990742,-1.6670189 a 0.34264788,0.33124593 0 0 0 -0.12629,-0.452198 L 18.817276,3.3970355 a 0.34264788,0.33124593 0 0 0 -0.467763,0.122277 l -0.99035,1.6656939 A 9.9845635,9.6523172 0 0 0 14.560611,4.4615653 V 3.4498455 h 0.695085 A 0.34264788,0.33124593 0 0 0 15.598344,3.1185996 V 1.5573902 A 0.34245208,0.33105665 0 0 0 15.255696,1.2261443 h -3.690415 a 0.34245208,0.33105665 0 0 0 -0.342648,0.3312459 v 1.5612094 a 0.34264788,0.33124593 0 0 0 0.342648,0.3312459 h 0.695085 V 4.461376 A 9.9197541,9.5896644 0 0 0 9.4604436,5.1833028 L 8.471464,3.5193125 A 0.34245208,0.33105665 0 0 0 8.0037006,3.3970355 L 6.6031519,4.1748009 a 0.34264788,0.33124593 0 0 0 -0.1262902,0.452198 l 0.9905461,1.6666403 a 10.006297,9.6733276 0 0 0 -3.7984966,9.9619848 0.34264788,0.33124593 0 0 0 0.332858,0.256479 0.35498321,0.34317079 0 0 0 0.07832,-0.0085 0.34284368,0.33143522 0 0 0 0.256888,-0.397684 z M 18.773026,4.1365657 19.579129,4.5845995 18.786732,5.9179117 C 18.525144,5.7564529 18.258075,5.6054048 17.981803,5.4681743 Z M 11.907929,1.8886361 h 3.005119 v 0.8987176 h -3.005119 z m 1.037733,1.5612094 h 0.929653 V 4.409323 c -0.154485,-0.007 -0.308188,-0.014007 -0.464827,-0.014007 -0.156639,0 -0.310732,0.00454 -0.464826,0.011546 z M 7.2418476,4.5845995 8.0479512,4.1369442 8.8397615,5.46931 Q 8.425647,5.6760075 8.0344411,5.9182902 Z" />
  <path
     style="stroke-width:0.192514"
     id="path20"
     d="M 22.4607,9.9456729 A 0.34264788,0.33124593 0 0 0 21.840801,10.228084 9.3159106,9.0059144 0 0 1 6.1326474,19.6826 0.34245208,0.33105665 0 0 0 5.5981167,20.096373 10.001598,9.6687848 0 0 0 22.461092,9.9456729 Z" />
  <path
     style="stroke-width:0.192514"
     id="path22"
     d="m 4.8217745,17.552972 a 0.34284368,0.33143522 0 0 0 -0.6318427,0.257047 c 0.1192415,0.273515 0.2531678,0.545136 0.3984505,0.807672 A 0.34264788,0.33124593 0 1 0 5.1926174,18.305185 C 5.0573205,18.061577 4.9324008,17.807559 4.8217745,17.552972 Z" />
  <path
     style="stroke-width:0.192514"
     id="path24"
     d="m 20.110527,10.266698 a 0.32737558,0.31648183 0 0 0 -0.01958,-0.02555 7.8205953,7.5603572 0 0 0 -2.761742,-2.6560242 0.29663517,0.28676434 0 0 0 -0.02937,-0.020632 0.31484445,0.30436769 0 0 0 -0.03426,-0.014764 7.737185,7.4797224 0 0 0 -7.7467793,0.020253 0.34871764,0.33711372 0 0 0 -0.034852,0.015521 0.31660664,0.30607124 0 0 0 -0.026041,0.018928 7.8223575,7.5620607 0 0 0 -2.7480361,2.6700312 0.18522566,0.17906209 0 0 0 -0.036418,0.06133 7.7375766,7.480101 0 0 0 0.021146,7.489187 0.3391235,0.32783883 0 0 0 0.015664,0.03331 c 0.00431,0.0072 0.010769,0.01249 0.015468,0.01893 a 7.8203995,7.5601679 0 0 0 2.7652664,2.662081 0.33422853,0.32310675 0 0 0 0.029957,0.02101 c 0.00862,0.0047 0.018014,0.0066 0.026824,0.01079 a 7.739143,7.4816153 0 0 0 7.763422,-0.02139 c 0.0084,-0.004 0.01743,-0.0057 0.02565,-0.01041 0.0082,-0.0047 0.01723,-0.0123 0.02604,-0.01893 a 7.8221617,7.5618714 0 0 0 2.752539,-2.677224 c 0.0053,-0.0074 0.01194,-0.01287 0.01664,-0.02082 a 0.28253765,0.27313593 0 0 0 0.01547,-0.03313 7.7379682,7.4804796 0 0 0 -0.02115,-7.489376 0.31758564,0.30701766 0 0 0 -0.01586,-0.03312 z m -2.830467,9.523604 -0.440352,-0.725523 a 0.34269403,0.33129055 0 1 0 -0.591312,0.335031 l 0.440939,0.727227 a 7.0291766,6.7952737 0 0 1 -2.936982,0.772655 v -0.84515 a 0.342648,0.33124605 0 0 0 -0.685296,0 v 0.84515 a 7.0274144,6.7935702 0 0 1 -2.900563,-0.755998 l 0.436631,-0.729309 A 0.34264788,0.33124593 0 0 0 10.010051,19.082571 L 9.5740069,19.811123 A 7.1354953,6.8980546 0 0 1 7.4854212,17.803205 l 0.75128,-0.425509 A 0.34264788,0.33124593 0 0 0 7.8903331,16.80606 L 7.1380742,17.232326 A 7.0291766,6.7952737 0 0 1 6.3386277,14.393075 h 0.8742416 a 0.34264788,0.33124593 0 0 0 0,-0.662491 H 6.3386277 a 7.0291766,6.7952737 0 0 1 0.781433,-2.804802 l 0.7546085,0.421913 A 0.34264788,0.33124593 0 0 0 8.2177087,10.774356 L 7.464275,10.352821 A 7.1349079,6.8974867 0 0 1 9.5409169,8.3344927 L 9.9812684,9.0607731 A 0.34264788,0.33124593 0 0 0 10.572581,8.7259308 L 10.131642,7.998704 a 7.0256522,6.7918666 0 0 1 2.936982,-0.7726548 v 0.844961 a 0.342648,0.33124605 0 0 0 0.685296,0 v -0.844961 a 7.0291766,6.7952737 0 0 1 2.901346,0.7552407 l -0.437415,0.7296875 a 0.34264788,0.33124593 0 1 0 0.593075,0.3318138 l 0.436044,-0.729309 a 7.1354953,6.8980546 0 0 1 2.088586,2.0082968 l -0.75128,0.425509 a 0.34264788,0.33124593 0 1 0 0.346368,0.571636 l 0.752454,-0.426266 a 7.0323093,6.7983022 0 0 1 0.799251,2.839251 h -0.874241 a 0.34264788,0.33124593 0 0 0 0,0.662491 h 0.874241 a 7.0291766,6.7952737 0 0 1 -0.781433,2.804045 l -0.754413,-0.422102 a 0.34270255,0.33129878 0 0 0 -0.343235,0.573528 l 0.753434,0.421534 a 7.1343205,6.8969189 0 0 1 -2.076642,2.018897 z" />
</svg>
